<svg width="260" height="43" viewBox="0 0 260 43" fill="none" xmlns="http://www.w3.org/2000/svg">
<path d="M49.5028 13.144C48.2308 13.144 47.0848 12.868 46.0648 12.316C45.0448 11.752 44.2408 10.978 43.6528 9.994C43.0768 9.01 42.7888 7.912 42.7888 6.7C42.7888 5.488 43.0768 4.39 43.6528 3.406C44.2408 2.422 45.0448 1.654 46.0648 1.102C47.0848 0.538 48.2308 0.256 49.5028 0.256C50.7628 0.256 51.9028 0.538 52.9228 1.102C53.9428 1.654 54.7408 2.422 55.3168 3.406C55.8928 4.378 56.1808 5.476 56.1808 6.7C56.1808 7.924 55.8928 9.028 55.3168 10.012C54.7408 10.984 53.9428 11.752 52.9228 12.316C51.9028 12.868 50.7628 13.144 49.5028 13.144ZM49.5028 11.542C50.4268 11.542 51.2548 11.332 51.9868 10.912C52.7308 10.492 53.3128 9.916 53.7328 9.184C54.1648 8.44 54.3808 7.612 54.3808 6.7C54.3808 5.788 54.1648 4.966 53.7328 4.234C53.3128 3.49 52.7308 2.908 51.9868 2.488C51.2548 2.068 50.4268 1.858 49.5028 1.858C48.5788 1.858 47.7388 2.068 46.9828 2.488C46.2388 2.908 45.6508 3.49 45.2188 4.234C44.7988 4.966 44.5888 5.788 44.5888 6.7C44.5888 7.612 44.7988 8.44 45.2188 9.184C45.6508 9.916 46.2388 10.492 46.9828 10.912C47.7388 11.332 48.5788 11.542 49.5028 11.542ZM67.572 3.46V13H65.934V11.56C65.586 12.052 65.124 12.436 64.548 12.712C63.984 12.976 63.366 13.108 62.694 13.108C61.422 13.108 60.42 12.76 59.688 12.064C58.956 11.356 58.59 10.318 58.59 8.95V3.46H60.318V8.752C60.318 9.676 60.54 10.378 60.984 10.858C61.428 11.326 62.064 11.56 62.892 11.56C63.804 11.56 64.524 11.284 65.052 10.732C65.58 10.18 65.844 9.4 65.844 8.392V3.46H67.572ZM75.9196 3.37C76.8436 3.37 77.6716 3.574 78.4036 3.982C79.1356 4.39 79.7056 4.96 80.1136 5.692C80.5336 6.424 80.7436 7.27 80.7436 8.23C80.7436 9.19 80.5336 10.042 80.1136 10.786C79.7056 11.518 79.1356 12.088 78.4036 12.496C77.6716 12.904 76.8436 13.108 75.9196 13.108C75.2356 13.108 74.6056 12.976 74.0296 12.712C73.4656 12.448 72.9856 12.064 72.5896 11.56V16.492H70.8616V3.46H72.5176V4.972C72.9016 4.444 73.3876 4.048 73.9756 3.784C74.5636 3.508 75.2116 3.37 75.9196 3.37ZM75.7756 11.596C76.3876 11.596 76.9336 11.458 77.4136 11.182C77.9056 10.894 78.2896 10.498 78.5656 9.994C78.8536 9.478 78.9976 8.89 78.9976 8.23C78.9976 7.57 78.8536 6.988 78.5656 6.484C78.2896 5.968 77.9056 5.572 77.4136 5.296C76.9336 5.02 76.3876 4.882 75.7756 4.882C75.1756 4.882 74.6296 5.026 74.1376 5.314C73.6576 5.59 73.2736 5.98 72.9856 6.484C72.7096 6.988 72.5716 7.57 72.5716 8.23C72.5716 8.89 72.7096 9.478 72.9856 9.994C73.2616 10.498 73.6456 10.894 74.1376 11.182C74.6296 11.458 75.1756 11.596 75.7756 11.596ZM85.8672 13.108C85.0872 13.108 84.3372 13.006 83.6172 12.802C82.8972 12.586 82.3332 12.316 81.9252 11.992L82.6452 10.624C83.0652 10.924 83.5752 11.164 84.1752 11.344C84.7752 11.524 85.3812 11.614 85.9932 11.614C87.5052 11.614 88.2612 11.182 88.2612 10.318C88.2612 10.03 88.1592 9.802 87.9552 9.634C87.7512 9.466 87.4932 9.346 87.1812 9.274C86.8812 9.19 86.4492 9.1 85.8852 9.004C85.1172 8.884 84.4872 8.746 83.9952 8.59C83.5152 8.434 83.1012 8.17 82.7532 7.798C82.4052 7.426 82.2312 6.904 82.2312 6.232C82.2312 5.368 82.5912 4.678 83.3112 4.162C84.0312 3.634 84.9972 3.37 86.2092 3.37C86.8452 3.37 87.4812 3.448 88.1172 3.604C88.7532 3.76 89.2752 3.97 89.6832 4.234L88.9452 5.602C88.1652 5.098 87.2472 4.846 86.1912 4.846C85.4592 4.846 84.9012 4.966 84.5172 5.206C84.1332 5.446 83.9412 5.764 83.9412 6.16C83.9412 6.472 84.0492 6.718 84.2652 6.898C84.4812 7.078 84.7452 7.21 85.0572 7.294C85.3812 7.378 85.8312 7.474 86.4072 7.582C87.1752 7.714 87.7932 7.858 88.2612 8.014C88.7412 8.158 89.1492 8.41 89.4852 8.77C89.8212 9.13 89.9892 9.634 89.9892 10.282C89.9892 11.146 89.6172 11.836 88.8732 12.352C88.1412 12.856 87.1392 13.108 85.8672 13.108ZM91.9147 0.399999H93.9487L93.6067 9.022H92.2387L91.9147 0.399999ZM92.9407 13.108C92.6047 13.108 92.3227 13 92.0947 12.784C91.8667 12.556 91.7527 12.28 91.7527 11.956C91.7527 11.632 91.8667 11.362 92.0947 11.146C92.3227 10.918 92.6047 10.804 92.9407 10.804C93.2767 10.804 93.5527 10.918 93.7687 11.146C93.9847 11.362 94.0927 11.632 94.0927 11.956C94.0927 12.28 93.9787 12.556 93.7507 12.784C93.5347 13 93.2647 13.108 92.9407 13.108ZM102.051 0.399999H103.851V11.434H110.673V13H102.051V0.399999ZM116.013 3.37C117.333 3.37 118.341 3.694 119.037 4.342C119.745 4.99 120.099 5.956 120.099 7.24V13H118.461V11.74C118.173 12.184 117.759 12.526 117.219 12.766C116.691 12.994 116.061 13.108 115.329 13.108C114.261 13.108 113.403 12.85 112.755 12.334C112.119 11.818 111.801 11.14 111.801 10.3C111.801 9.46 112.107 8.788 112.719 8.284C113.331 7.768 114.303 7.51 115.635 7.51H118.371V7.168C118.371 6.424 118.155 5.854 117.723 5.458C117.291 5.062 116.655 4.864 115.815 4.864C115.251 4.864 114.699 4.96 114.159 5.152C113.619 5.332 113.163 5.578 112.791 5.89L112.071 4.594C112.563 4.198 113.151 3.898 113.835 3.694C114.519 3.478 115.245 3.37 116.013 3.37ZM115.617 11.776C116.277 11.776 116.847 11.632 117.327 11.344C117.807 11.044 118.155 10.624 118.371 10.084V8.752H115.707C114.243 8.752 113.511 9.244 113.511 10.228C113.511 10.708 113.697 11.086 114.069 11.362C114.441 11.638 114.957 11.776 115.617 11.776ZM133.189 3.37C134.113 3.37 134.941 3.574 135.673 3.982C136.405 4.39 136.975 4.96 137.383 5.692C137.803 6.424 138.013 7.27 138.013 8.23C138.013 9.19 137.803 10.042 137.383 10.786C136.975 11.518 136.405 12.088 135.673 12.496C134.941 12.904 134.113 13.108 133.189 13.108C132.505 13.108 131.875 12.976 131.299 12.712C130.735 12.448 130.255 12.064 129.859 11.56V16.492H128.131V3.46H129.787V4.972C130.171 4.444 130.657 4.048 131.245 3.784C131.833 3.508 132.481 3.37 133.189 3.37ZM133.045 11.596C133.657 11.596 134.203 11.458 134.683 11.182C135.175 10.894 135.559 10.498 135.835 9.994C136.123 9.478 136.267 8.89 136.267 8.23C136.267 7.57 136.123 6.988 135.835 6.484C135.559 5.968 135.175 5.572 134.683 5.296C134.203 5.02 133.657 4.882 133.045 4.882C132.445 4.882 131.899 5.026 131.407 5.314C130.927 5.59 130.543 5.98 130.255 6.484C129.979 6.988 129.841 7.57 129.841 8.23C129.841 8.89 129.979 9.478 130.255 9.994C130.531 10.498 130.915 10.894 131.407 11.182C131.899 11.458 132.445 11.596 133.045 11.596ZM143.787 3.37C145.107 3.37 146.115 3.694 146.811 4.342C147.519 4.99 147.873 5.956 147.873 7.24V13H146.235V11.74C145.947 12.184 145.533 12.526 144.993 12.766C144.465 12.994 143.835 13.108 143.103 13.108C142.035 13.108 141.177 12.85 140.529 12.334C139.893 11.818 139.575 11.14 139.575 10.3C139.575 9.46 139.881 8.788 140.493 8.284C141.105 7.768 142.077 7.51 143.409 7.51H146.145V7.168C146.145 6.424 145.929 5.854 145.497 5.458C145.065 5.062 144.429 4.864 143.589 4.864C143.025 4.864 142.473 4.96 141.933 5.152C141.393 5.332 140.937 5.578 140.565 5.89L139.845 4.594C140.337 4.198 140.925 3.898 141.609 3.694C142.293 3.478 143.019 3.37 143.787 3.37ZM143.391 11.776C144.051 11.776 144.621 11.632 145.101 11.344C145.581 11.044 145.929 10.624 146.145 10.084V8.752H143.481C142.017 8.752 141.285 9.244 141.285 10.228C141.285 10.708 141.471 11.086 141.843 11.362C142.215 11.638 142.731 11.776 143.391 11.776ZM160.249 3.46V11.704C160.249 13.372 159.835 14.602 159.007 15.394C158.179 16.198 156.943 16.6 155.299 16.6C154.399 16.6 153.541 16.474 152.725 16.222C151.909 15.982 151.249 15.634 150.745 15.178L151.573 13.846C152.017 14.23 152.563 14.53 153.211 14.746C153.871 14.974 154.549 15.088 155.245 15.088C156.361 15.088 157.183 14.824 157.711 14.296C158.251 13.768 158.521 12.964 158.521 11.884V11.128C158.113 11.62 157.609 11.992 157.009 12.244C156.421 12.484 155.779 12.604 155.083 12.604C154.171 12.604 153.343 12.412 152.599 12.028C151.867 11.632 151.291 11.086 150.871 10.39C150.451 9.682 150.241 8.878 150.241 7.978C150.241 7.078 150.451 6.28 150.871 5.584C151.291 4.876 151.867 4.33 152.599 3.946C153.343 3.562 154.171 3.37 155.083 3.37C155.803 3.37 156.469 3.502 157.081 3.766C157.705 4.03 158.215 4.42 158.611 4.936V3.46H160.249ZM155.281 11.092C155.905 11.092 156.463 10.96 156.955 10.696C157.459 10.432 157.849 10.066 158.125 9.598C158.413 9.118 158.557 8.578 158.557 7.978C158.557 7.054 158.251 6.31 157.639 5.746C157.027 5.17 156.241 4.882 155.281 4.882C154.309 4.882 153.517 5.17 152.905 5.746C152.293 6.31 151.987 7.054 151.987 7.978C151.987 8.578 152.125 9.118 152.401 9.598C152.689 10.066 153.079 10.432 153.571 10.696C154.075 10.96 154.645 11.092 155.281 11.092ZM172.173 8.284C172.173 8.416 172.161 8.59 172.137 8.806H164.397C164.505 9.646 164.871 10.324 165.495 10.84C166.131 11.344 166.917 11.596 167.853 11.596C168.993 11.596 169.911 11.212 170.607 10.444L171.561 11.56C171.129 12.064 170.589 12.448 169.941 12.712C169.305 12.976 168.591 13.108 167.799 13.108C166.791 13.108 165.897 12.904 165.117 12.496C164.337 12.076 163.731 11.494 163.299 10.75C162.879 10.006 162.669 9.166 162.669 8.23C162.669 7.306 162.873 6.472 163.281 5.728C163.701 4.984 164.271 4.408 164.991 4C165.723 3.58 166.545 3.37 167.457 3.37C168.369 3.37 169.179 3.58 169.887 4C170.607 4.408 171.165 4.984 171.561 5.728C171.969 6.472 172.173 7.324 172.173 8.284ZM167.457 4.828C166.629 4.828 165.933 5.08 165.369 5.584C164.817 6.088 164.493 6.748 164.397 7.564H170.517C170.421 6.76 170.091 6.106 169.527 5.602C168.975 5.086 168.285 4.828 167.457 4.828ZM188.407 3.46V16.492H186.679V11.56C186.283 12.064 185.797 12.448 185.221 12.712C184.657 12.976 184.033 13.108 183.349 13.108C182.425 13.108 181.597 12.904 180.865 12.496C180.133 12.088 179.557 11.518 179.137 10.786C178.729 10.042 178.525 9.19 178.525 8.23C178.525 7.27 178.729 6.424 179.137 5.692C179.557 4.96 180.133 4.39 180.865 3.982C181.597 3.574 182.425 3.37 183.349 3.37C184.057 3.37 184.705 3.508 185.293 3.784C185.881 4.048 186.367 4.444 186.751 4.972V3.46H188.407ZM183.493 11.596C184.093 11.596 184.639 11.458 185.131 11.182C185.623 10.894 186.007 10.498 186.283 9.994C186.559 9.478 186.697 8.89 186.697 8.23C186.697 7.57 186.553 6.988 186.265 6.484C185.989 5.98 185.605 5.59 185.113 5.314C184.633 5.026 184.093 4.882 183.493 4.882C182.881 4.882 182.329 5.02 181.837 5.296C181.357 5.572 180.973 5.968 180.685 6.484C180.409 6.988 180.271 7.57 180.271 8.23C180.271 8.89 180.409 9.478 180.685 9.994C180.973 10.498 181.357 10.894 181.837 11.182C182.329 11.458 182.881 11.596 183.493 11.596ZM200.568 3.46V13H198.93V11.56C198.582 12.052 198.12 12.436 197.544 12.712C196.98 12.976 196.362 13.108 195.69 13.108C194.418 13.108 193.416 12.76 192.684 12.064C191.952 11.356 191.586 10.318 191.586 8.95V3.46H193.314V8.752C193.314 9.676 193.536 10.378 193.98 10.858C194.424 11.326 195.06 11.56 195.888 11.56C196.8 11.56 197.52 11.284 198.048 10.732C198.576 10.18 198.84 9.4 198.84 8.392V3.46H200.568ZM212.48 8.284C212.48 8.416 212.468 8.59 212.444 8.806H204.704C204.812 9.646 205.178 10.324 205.802 10.84C206.438 11.344 207.224 11.596 208.16 11.596C209.3 11.596 210.218 11.212 210.914 10.444L211.868 11.56C211.436 12.064 210.896 12.448 210.248 12.712C209.612 12.976 208.898 13.108 208.106 13.108C207.098 13.108 206.204 12.904 205.424 12.496C204.644 12.076 204.038 11.494 203.606 10.75C203.186 10.006 202.976 9.166 202.976 8.23C202.976 7.306 203.18 6.472 203.588 5.728C204.008 4.984 204.578 4.408 205.298 4C206.03 3.58 206.852 3.37 207.764 3.37C208.676 3.37 209.486 3.58 210.194 4C210.914 4.408 211.472 4.984 211.868 5.728C212.276 6.472 212.48 7.324 212.48 8.284ZM207.764 4.828C206.936 4.828 206.24 5.08 205.676 5.584C205.124 6.088 204.8 6.748 204.704 7.564H210.824C210.728 6.76 210.398 6.106 209.834 5.602C209.282 5.086 208.592 4.828 207.764 4.828ZM10.1601 29.46L5.98408 39H4.22008L0.0440781 29.46H1.84408L5.12008 37.11L8.46808 29.46H10.1601ZM15.5951 39.108C14.6471 39.108 13.7951 38.898 13.0391 38.478C12.2831 38.058 11.6891 37.482 11.2571 36.75C10.8371 36.006 10.6271 35.166 10.6271 34.23C10.6271 33.294 10.8371 32.46 11.2571 31.728C11.6891 30.984 12.2831 30.408 13.0391 30C13.7951 29.58 14.6471 29.37 15.5951 29.37C16.5431 29.37 17.3891 29.58 18.1331 30C18.8891 30.408 19.4771 30.984 19.8971 31.728C20.3291 32.46 20.5451 33.294 20.5451 34.23C20.5451 35.166 20.3291 36.006 19.8971 36.75C19.4771 37.482 18.8891 38.058 18.1331 38.478C17.3891 38.898 16.5431 39.108 15.5951 39.108ZM15.5951 37.596C16.2071 37.596 16.7531 37.458 17.2331 37.182C17.7251 36.894 18.1091 36.498 18.3851 35.994C18.6611 35.478 18.7991 34.89 18.7991 34.23C18.7991 33.57 18.6611 32.988 18.3851 32.484C18.1091 31.968 17.7251 31.572 17.2331 31.296C16.7531 31.02 16.2071 30.882 15.5951 30.882C14.9831 30.882 14.4311 31.02 13.9391 31.296C13.4591 31.572 13.0751 31.968 12.7871 32.484C12.5111 32.988 12.3731 33.57 12.3731 34.23C12.3731 34.89 12.5111 35.478 12.7871 35.994C13.0751 36.498 13.4591 36.894 13.9391 37.182C14.4311 37.458 14.9831 37.596 15.5951 37.596ZM31.8269 29.46V39H30.1889V37.56C29.8409 38.052 29.3789 38.436 28.8029 38.712C28.2389 38.976 27.6209 39.108 26.9489 39.108C25.6769 39.108 24.6749 38.76 23.9429 38.064C23.2109 37.356 22.8449 36.318 22.8449 34.95V29.46H24.5729V34.752C24.5729 35.676 24.7949 36.378 25.2389 36.858C25.6829 37.326 26.3189 37.56 27.1469 37.56C28.0589 37.56 28.7789 37.284 29.3069 36.732C29.8349 36.18 30.0989 35.4 30.0989 34.392V29.46H31.8269ZM37.8525 39.108C37.0725 39.108 36.3225 39.006 35.6025 38.802C34.8825 38.586 34.3185 38.316 33.9105 37.992L34.6305 36.624C35.0505 36.924 35.5605 37.164 36.1605 37.344C36.7605 37.524 37.3665 37.614 37.9785 37.614C39.4905 37.614 40.2465 37.182 40.2465 36.318C40.2465 36.03 40.1445 35.802 39.9405 35.634C39.7365 35.466 39.4785 35.346 39.1665 35.274C38.8665 35.19 38.4345 35.1 37.8705 35.004C37.1025 34.884 36.4725 34.746 35.9805 34.59C35.5005 34.434 35.0865 34.17 34.7385 33.798C34.3905 33.426 34.2165 32.904 34.2165 32.232C34.2165 31.368 34.5765 30.678 35.2965 30.162C36.0165 29.634 36.9825 29.37 38.1945 29.37C38.8305 29.37 39.4665 29.448 40.1025 29.604C40.7385 29.76 41.2605 29.97 41.6685 30.234L40.9305 31.602C40.1505 31.098 39.2325 30.846 38.1765 30.846C37.4445 30.846 36.8865 30.966 36.5025 31.206C36.1185 31.446 35.9265 31.764 35.9265 32.16C35.9265 32.472 36.0345 32.718 36.2505 32.898C36.4665 33.078 36.7305 33.21 37.0425 33.294C37.3665 33.378 37.8165 33.474 38.3925 33.582C39.1605 33.714 39.7785 33.858 40.2465 34.014C40.7265 34.158 41.1345 34.41 41.4705 34.77C41.8065 35.13 41.9745 35.634 41.9745 36.282C41.9745 37.146 41.6025 37.836 40.8585 38.352C40.1265 38.856 39.1245 39.108 37.8525 39.108ZM57.9681 25.644V39H56.3121V37.488C55.9281 38.016 55.4421 38.418 54.8541 38.694C54.2661 38.97 53.6181 39.108 52.9101 39.108C51.9861 39.108 51.1581 38.904 50.4261 38.496C49.6941 38.088 49.1181 37.518 48.6981 36.786C48.2901 36.042 48.0861 35.19 48.0861 34.23C48.0861 33.27 48.2901 32.424 48.6981 31.692C49.1181 30.96 49.6941 30.39 50.4261 29.982C51.1581 29.574 51.9861 29.37 52.9101 29.37C53.5941 29.37 54.2241 29.502 54.8001 29.766C55.3761 30.018 55.8561 30.396 56.2401 30.9V25.644H57.9681ZM53.0541 37.596C53.6541 37.596 54.2001 37.458 54.6921 37.182C55.1841 36.894 55.5681 36.498 55.8441 35.994C56.1201 35.478 56.2581 34.89 56.2581 34.23C56.2581 33.57 56.1201 32.988 55.8441 32.484C55.5681 31.968 55.1841 31.572 54.6921 31.296C54.2001 31.02 53.6541 30.882 53.0541 30.882C52.4421 30.882 51.8901 31.02 51.3981 31.296C50.9181 31.572 50.5341 31.968 50.2461 32.484C49.9701 32.988 49.8321 33.57 49.8321 34.23C49.8321 34.89 49.9701 35.478 50.2461 35.994C50.5341 36.498 50.9181 36.894 51.3981 37.182C51.8901 37.458 52.4421 37.596 53.0541 37.596ZM69.8596 34.284C69.8596 34.416 69.8476 34.59 69.8236 34.806H62.0836C62.1916 35.646 62.5576 36.324 63.1816 36.84C63.8176 37.344 64.6036 37.596 65.5396 37.596C66.6796 37.596 67.5976 37.212 68.2936 36.444L69.2476 37.56C68.8156 38.064 68.2756 38.448 67.6276 38.712C66.9916 38.976 66.2776 39.108 65.4856 39.108C64.4776 39.108 63.5836 38.904 62.8036 38.496C62.0236 38.076 61.4176 37.494 60.9856 36.75C60.5656 36.006 60.3556 35.166 60.3556 34.23C60.3556 33.306 60.5596 32.472 60.9676 31.728C61.3876 30.984 61.9576 30.408 62.6776 30C63.4096 29.58 64.2316 29.37 65.1436 29.37C66.0556 29.37 66.8656 29.58 67.5736 30C68.2936 30.408 68.8516 30.984 69.2476 31.728C69.6556 32.472 69.8596 33.324 69.8596 34.284ZM65.1436 30.828C64.3156 30.828 63.6196 31.08 63.0556 31.584C62.5036 32.088 62.1796 32.748 62.0836 33.564H68.2036C68.1076 32.76 67.7776 32.106 67.2136 31.602C66.6616 31.086 65.9716 30.828 65.1436 30.828ZM84.1931 29.37C85.3931 29.37 86.3411 29.718 87.0371 30.414C87.7451 31.11 88.0991 32.142 88.0991 33.51V39H86.3711V33.708C86.3711 32.784 86.1551 32.088 85.7231 31.62C85.3031 31.152 84.6971 30.918 83.9051 30.918C83.0291 30.918 82.3331 31.194 81.8171 31.746C81.3011 32.286 81.0431 33.066 81.0431 34.086V39H79.3151V33.708C79.3151 32.784 79.0991 32.088 78.6671 31.62C78.2471 31.152 77.6411 30.918 76.8491 30.918C75.9731 30.918 75.2771 31.194 74.7611 31.746C74.2451 32.286 73.9871 33.066 73.9871 34.086V39H72.2591V29.46H73.9151V30.882C74.2631 30.39 74.7191 30.018 75.2831 29.766C75.8471 29.502 76.4891 29.37 77.2091 29.37C77.9531 29.37 78.6131 29.52 79.1891 29.82C79.7651 30.12 80.2091 30.558 80.5211 31.134C80.8811 30.582 81.3791 30.15 82.0151 29.838C82.6631 29.526 83.3891 29.37 84.1931 29.37ZM94.7526 29.37C96.0726 29.37 97.0806 29.694 97.7766 30.342C98.4846 30.99 98.8386 31.956 98.8386 33.24V39H97.2006V37.74C96.9126 38.184 96.4986 38.526 95.9586 38.766C95.4306 38.994 94.8006 39.108 94.0686 39.108C93.0006 39.108 92.1426 38.85 91.4946 38.334C90.8586 37.818 90.5406 37.14 90.5406 36.3C90.5406 35.46 90.8466 34.788 91.4586 34.284C92.0706 33.768 93.0426 33.51 94.3746 33.51H97.1106V33.168C97.1106 32.424 96.8946 31.854 96.4626 31.458C96.0306 31.062 95.3946 30.864 94.5546 30.864C93.9906 30.864 93.4386 30.96 92.8986 31.152C92.3586 31.332 91.9026 31.578 91.5306 31.89L90.8106 30.594C91.3026 30.198 91.8906 29.898 92.5746 29.694C93.2586 29.478 93.9846 29.37 94.7526 29.37ZM94.3566 37.776C95.0166 37.776 95.5866 37.632 96.0666 37.344C96.5466 37.044 96.8946 36.624 97.1106 36.084V34.752H94.4466C92.9826 34.752 92.2506 35.244 92.2506 36.228C92.2506 36.708 92.4366 37.086 92.8086 37.362C93.1806 37.638 93.6966 37.776 94.3566 37.776ZM107.13 29.37C108.342 29.37 109.302 29.724 110.01 30.432C110.73 31.128 111.09 32.154 111.09 33.51V39H109.362V33.708C109.362 32.784 109.14 32.088 108.696 31.62C108.252 31.152 107.616 30.918 106.788 30.918C105.852 30.918 105.114 31.194 104.574 31.746C104.034 32.286 103.764 33.066 103.764 34.086V39H102.036V29.46H103.692V30.9C104.04 30.408 104.508 30.03 105.096 29.766C105.696 29.502 106.374 29.37 107.13 29.37ZM123.341 25.644V39H121.685V37.488C121.301 38.016 120.815 38.418 120.227 38.694C119.639 38.97 118.991 39.108 118.283 39.108C117.359 39.108 116.531 38.904 115.799 38.496C115.067 38.088 114.491 37.518 114.071 36.786C113.663 36.042 113.459 35.19 113.459 34.23C113.459 33.27 113.663 32.424 114.071 31.692C114.491 30.96 115.067 30.39 115.799 29.982C116.531 29.574 117.359 29.37 118.283 29.37C118.967 29.37 119.597 29.502 120.173 29.766C120.749 30.018 121.229 30.396 121.613 30.9V25.644H123.341ZM118.427 37.596C119.027 37.596 119.573 37.458 120.065 37.182C120.557 36.894 120.941 36.498 121.217 35.994C121.493 35.478 121.631 34.89 121.631 34.23C121.631 33.57 121.493 32.988 121.217 32.484C120.941 31.968 120.557 31.572 120.065 31.296C119.573 31.02 119.027 30.882 118.427 30.882C117.815 30.882 117.263 31.02 116.771 31.296C116.291 31.572 115.907 31.968 115.619 32.484C115.343 32.988 115.205 33.57 115.205 34.23C115.205 34.89 115.343 35.478 115.619 35.994C115.907 36.498 116.291 36.894 116.771 37.182C117.263 37.458 117.815 37.596 118.427 37.596ZM135.233 34.284C135.233 34.416 135.221 34.59 135.197 34.806H127.457C127.565 35.646 127.931 36.324 128.555 36.84C129.191 37.344 129.977 37.596 130.913 37.596C132.053 37.596 132.971 37.212 133.667 36.444L134.621 37.56C134.189 38.064 133.649 38.448 133.001 38.712C132.365 38.976 131.651 39.108 130.859 39.108C129.851 39.108 128.957 38.904 128.177 38.496C127.397 38.076 126.791 37.494 126.359 36.75C125.939 36.006 125.729 35.166 125.729 34.23C125.729 33.306 125.933 32.472 126.341 31.728C126.761 30.984 127.331 30.408 128.051 30C128.783 29.58 129.605 29.37 130.517 29.37C131.429 29.37 132.239 29.58 132.947 30C133.667 30.408 134.225 30.984 134.621 31.728C135.029 32.472 135.233 33.324 135.233 34.284ZM130.517 30.828C129.689 30.828 128.993 31.08 128.429 31.584C127.877 32.088 127.553 32.748 127.457 33.564H133.577C133.481 32.76 133.151 32.106 132.587 31.602C132.035 31.086 131.345 30.828 130.517 30.828ZM144.618 37.578V39H136.626V37.884L142.26 30.882H136.734V29.46H144.474V30.594L138.84 37.578H144.618ZM156.859 29.37C158.071 29.37 159.031 29.724 159.739 30.432C160.459 31.128 160.819 32.154 160.819 33.51V39H159.091V33.708C159.091 32.784 158.869 32.088 158.425 31.62C157.981 31.152 157.345 30.918 156.517 30.918C155.581 30.918 154.843 31.194 154.303 31.746C153.763 32.286 153.493 33.066 153.493 34.086V39H151.765V29.46H153.421V30.9C153.769 30.408 154.237 30.03 154.825 29.766C155.425 29.502 156.103 29.37 156.859 29.37ZM163.513 26.4H165.025L164.899 31.26H163.621L163.513 26.4ZM176.418 34.284C176.418 34.416 176.406 34.59 176.382 34.806H168.642C168.75 35.646 169.116 36.324 169.74 36.84C170.376 37.344 171.162 37.596 172.098 37.596C173.238 37.596 174.156 37.212 174.852 36.444L175.806 37.56C175.374 38.064 174.834 38.448 174.186 38.712C173.55 38.976 172.836 39.108 172.044 39.108C171.036 39.108 170.142 38.904 169.362 38.496C168.582 38.076 167.976 37.494 167.544 36.75C167.124 36.006 166.914 35.166 166.914 34.23C166.914 33.306 167.118 32.472 167.526 31.728C167.946 30.984 168.516 30.408 169.236 30C169.968 29.58 170.79 29.37 171.702 29.37C172.614 29.37 173.424 29.58 174.132 30C174.852 30.408 175.41 30.984 175.806 31.728C176.214 32.472 176.418 33.324 176.418 34.284ZM171.702 30.828C170.874 30.828 170.178 31.08 169.614 31.584C169.062 32.088 168.738 32.748 168.642 33.564H174.762C174.666 32.76 174.336 32.106 173.772 31.602C173.22 31.086 172.53 30.828 171.702 30.828ZM184.638 39L181.884 35.346L179.094 39H177.168L180.93 34.122L177.348 29.46H179.274L181.902 32.898L184.512 29.46H186.402L182.802 34.122L186.6 39H184.638ZM188.486 29.46H190.214V39H188.486V29.46ZM189.35 27.624C189.014 27.624 188.732 27.516 188.504 27.3C188.288 27.084 188.18 26.82 188.18 26.508C188.18 26.196 188.288 25.932 188.504 25.716C188.732 25.488 189.014 25.374 189.35 25.374C189.686 25.374 189.962 25.482 190.178 25.698C190.406 25.902 190.52 26.16 190.52 26.472C190.52 26.796 190.406 27.072 190.178 27.3C189.962 27.516 189.686 27.624 189.35 27.624ZM196.249 39.108C195.469 39.108 194.719 39.006 193.999 38.802C193.279 38.586 192.715 38.316 192.307 37.992L193.027 36.624C193.447 36.924 193.957 37.164 194.557 37.344C195.157 37.524 195.763 37.614 196.375 37.614C197.887 37.614 198.643 37.182 198.643 36.318C198.643 36.03 198.541 35.802 198.337 35.634C198.133 35.466 197.875 35.346 197.563 35.274C197.263 35.19 196.831 35.1 196.267 35.004C195.499 34.884 194.869 34.746 194.377 34.59C193.897 34.434 193.483 34.17 193.135 33.798C192.787 33.426 192.613 32.904 192.613 32.232C192.613 31.368 192.973 30.678 193.693 30.162C194.413 29.634 195.379 29.37 196.591 29.37C197.227 29.37 197.863 29.448 198.499 29.604C199.135 29.76 199.657 29.97 200.065 30.234L199.327 31.602C198.547 31.098 197.629 30.846 196.573 30.846C195.841 30.846 195.283 30.966 194.899 31.206C194.515 31.446 194.323 31.764 194.323 32.16C194.323 32.472 194.431 32.718 194.647 32.898C194.863 33.078 195.127 33.21 195.439 33.294C195.763 33.378 196.213 33.474 196.789 33.582C197.557 33.714 198.175 33.858 198.643 34.014C199.123 34.158 199.531 34.41 199.867 34.77C200.203 35.13 200.371 35.634 200.371 36.282C200.371 37.146 199.999 37.836 199.255 38.352C198.523 38.856 197.521 39.108 196.249 39.108ZM207.895 38.442C207.643 38.658 207.331 38.826 206.959 38.946C206.587 39.054 206.203 39.108 205.807 39.108C204.847 39.108 204.103 38.85 203.575 38.334C203.047 37.818 202.783 37.08 202.783 36.12V30.882H201.163V29.46H202.783V27.372H204.511V29.46H207.247V30.882H204.511V36.048C204.511 36.564 204.637 36.96 204.889 37.236C205.153 37.512 205.525 37.65 206.005 37.65C206.533 37.65 206.983 37.5 207.355 37.2L207.895 38.442ZM218.289 34.284C218.289 34.416 218.277 34.59 218.253 34.806H210.513C210.621 35.646 210.987 36.324 211.611 36.84C212.247 37.344 213.033 37.596 213.969 37.596C215.109 37.596 216.027 37.212 216.723 36.444L217.677 37.56C217.245 38.064 216.705 38.448 216.057 38.712C215.421 38.976 214.707 39.108 213.915 39.108C212.907 39.108 212.013 38.904 211.233 38.496C210.453 38.076 209.847 37.494 209.415 36.75C208.995 36.006 208.785 35.166 208.785 34.23C208.785 33.306 208.989 32.472 209.397 31.728C209.817 30.984 210.387 30.408 211.107 30C211.839 29.58 212.661 29.37 213.573 29.37C214.485 29.37 215.295 29.58 216.003 30C216.723 30.408 217.281 30.984 217.677 31.728C218.085 32.472 218.289 33.324 218.289 34.284ZM213.573 30.828C212.745 30.828 212.049 31.08 211.485 31.584C210.933 32.088 210.609 32.748 210.513 33.564H216.633C216.537 32.76 216.207 32.106 215.643 31.602C215.091 31.086 214.401 30.828 213.573 30.828ZM230.581 29.37C231.505 29.37 232.333 29.574 233.065 29.982C233.797 30.39 234.367 30.96 234.775 31.692C235.195 32.424 235.405 33.27 235.405 34.23C235.405 35.19 235.195 36.042 234.775 36.786C234.367 37.518 233.797 38.088 233.065 38.496C232.333 38.904 231.505 39.108 230.581 39.108C229.897 39.108 229.267 38.976 228.691 38.712C228.127 38.448 227.647 38.064 227.251 37.56V42.492H225.523V29.46H227.179V30.972C227.563 30.444 228.049 30.048 228.637 29.784C229.225 29.508 229.873 29.37 230.581 29.37ZM230.437 37.596C231.049 37.596 231.595 37.458 232.075 37.182C232.567 36.894 232.951 36.498 233.227 35.994C233.515 35.478 233.659 34.89 233.659 34.23C233.659 33.57 233.515 32.988 233.227 32.484C232.951 31.968 232.567 31.572 232.075 31.296C231.595 31.02 231.049 30.882 230.437 30.882C229.837 30.882 229.291 31.026 228.799 31.314C228.319 31.59 227.935 31.98 227.647 32.484C227.371 32.988 227.233 33.57 227.233 34.23C227.233 34.89 227.371 35.478 227.647 35.994C227.923 36.498 228.307 36.894 228.799 37.182C229.291 37.458 229.837 37.596 230.437 37.596ZM241.178 29.37C242.498 29.37 243.506 29.694 244.202 30.342C244.91 30.99 245.264 31.956 245.264 33.24V39H243.626V37.74C243.338 38.184 242.924 38.526 242.384 38.766C241.856 38.994 241.226 39.108 240.494 39.108C239.426 39.108 238.568 38.85 237.92 38.334C237.284 37.818 236.966 37.14 236.966 36.3C236.966 35.46 237.272 34.788 237.884 34.284C238.496 33.768 239.468 33.51 240.8 33.51H243.536V33.168C243.536 32.424 243.32 31.854 242.888 31.458C242.456 31.062 241.82 30.864 240.98 30.864C240.416 30.864 239.864 30.96 239.324 31.152C238.784 31.332 238.328 31.578 237.956 31.89L237.236 30.594C237.728 30.198 238.316 29.898 239 29.694C239.684 29.478 240.41 29.37 241.178 29.37ZM240.782 37.776C241.442 37.776 242.012 37.632 242.492 37.344C242.972 37.044 243.32 36.624 243.536 36.084V34.752H240.872C239.408 34.752 238.676 35.244 238.676 36.228C238.676 36.708 238.862 37.086 239.234 37.362C239.606 37.638 240.122 37.776 240.782 37.776ZM251.198 39.108C250.418 39.108 249.668 39.006 248.948 38.802C248.228 38.586 247.664 38.316 247.256 37.992L247.976 36.624C248.396 36.924 248.906 37.164 249.506 37.344C250.106 37.524 250.712 37.614 251.324 37.614C252.836 37.614 253.592 37.182 253.592 36.318C253.592 36.03 253.49 35.802 253.286 35.634C253.082 35.466 252.824 35.346 252.512 35.274C252.212 35.19 251.78 35.1 251.216 35.004C250.448 34.884 249.818 34.746 249.326 34.59C248.846 34.434 248.432 34.17 248.084 33.798C247.736 33.426 247.562 32.904 247.562 32.232C247.562 31.368 247.922 30.678 248.642 30.162C249.362 29.634 250.328 29.37 251.54 29.37C252.176 29.37 252.812 29.448 253.448 29.604C254.084 29.76 254.606 29.97 255.014 30.234L254.276 31.602C253.496 31.098 252.578 30.846 251.522 30.846C250.79 30.846 250.232 30.966 249.848 31.206C249.464 31.446 249.272 31.764 249.272 32.16C249.272 32.472 249.38 32.718 249.596 32.898C249.812 33.078 250.076 33.21 250.388 33.294C250.712 33.378 251.162 33.474 251.738 33.582C252.506 33.714 253.124 33.858 253.592 34.014C254.072 34.158 254.48 34.41 254.816 34.77C255.152 35.13 255.32 35.634 255.32 36.282C255.32 37.146 254.948 37.836 254.204 38.352C253.472 38.856 252.47 39.108 251.198 39.108ZM257.894 39.108C257.558 39.108 257.27 38.994 257.03 38.766C256.79 38.526 256.67 38.226 256.67 37.866C256.67 37.518 256.79 37.23 257.03 37.002C257.27 36.762 257.558 36.642 257.894 36.642C258.23 36.642 258.512 36.756 258.74 36.984C258.968 37.212 259.082 37.506 259.082 37.866C259.082 38.226 258.962 38.526 258.722 38.766C258.494 38.994 258.218 39.108 257.894 39.108Z" fill="#FF6060"/>
</svg>
